<svg width="190" height="200" viewBox="0 0 190 200" fill="none" xmlns="http://www.w3.org/2000/svg">
<g clip-path="url(#clip0_250_76)">
<path d="M181.319 150V50L94.7866 0L8.25391 50V150L94.7866 200L181.319 150Z" fill="url(#paint0_linear_250_76)"/>
<path d="M189.573 105.109V132.883L94.7867 187.651L0 132.883V105.109L94.7867 159.875L189.573 105.109Z" fill="#00378B"/>
<path style="mix-blend-mode:screen" d="M189.573 105.109V106.648L94.7867 161.416L0 106.648V105.109L94.7867 159.875L189.573 105.109Z" fill="url(#paint1_linear_250_76)"/>
<path d="M0 105.109L8.25403 94.8457V109.877L0 105.109Z" fill="url(#paint2_linear_250_76)"/>
<path d="M189.573 105.109L181.319 94.8457V109.877L189.573 105.109Z" fill="url(#paint3_linear_250_76)"/>
<path d="M143.218 42.9951H46.8223V68.2387H143.218V42.9951Z" fill="#D40000"/>
<path d="M50.9511 46.8398H64.9018V48.6673L53.679 62.4038H65.1615V64.3962H50.6895V62.5934L61.9122 48.8569H50.9511V46.8398Z" fill="white"/>
<path d="M73.2526 46.8623H75.9805L82.7426 64.4187H80.2516L78.6383 59.9106H70.6421L69.0042 64.4187H66.4658L73.2507 46.8623H73.2526ZM74.6042 49.2111L71.353 57.9429H77.8781L74.6042 49.2111Z" fill="white"/>
<path d="M85.3037 46.8623H91.4478C93.2753 46.8623 94.699 47.2415 95.6715 47.977C96.6686 48.7353 97.2127 49.9467 97.1426 51.1808C97.19 52.1059 96.9284 53.0083 96.3843 53.7438C95.8156 54.4073 95.008 54.8358 94.1549 54.9306C95.2222 55.1201 96.1947 55.6661 96.9075 56.4964C97.5957 57.3514 97.9274 58.4187 97.88 59.486C97.9521 60.8851 97.3587 62.214 96.2667 63.0917C95.1994 63.9467 93.6563 64.3732 91.6639 64.3732H85.3056V46.8642L85.3037 46.8623ZM87.6999 48.8092V54.1002H91.2582C92.4203 54.1002 93.298 53.886 93.8686 53.4367C94.462 52.9628 94.7938 52.2026 94.7236 51.4443C94.771 50.686 94.462 49.9505 93.8686 49.4519C93.2999 49.0253 92.4222 48.7884 91.2582 48.7884H87.6999V48.813V48.8092ZM87.6999 56.0206V62.4509H91.5426C92.8241 62.4509 93.7966 62.1893 94.4127 61.668C95.0288 61.1467 95.3378 60.3163 95.3378 59.2471C95.3378 58.1779 95.0288 57.3495 94.4127 56.8263C93.7966 56.305 92.8468 56.0433 91.5426 56.0433H87.6999V56.0187V56.0206Z" fill="white"/>
<path d="M101.745 46.8623H107.889C109.717 46.8623 111.116 47.2415 112.113 47.977C113.11 48.7353 113.654 49.9467 113.607 51.1808C113.654 52.1059 113.393 53.0083 112.848 53.7438C112.28 54.4073 111.497 54.8358 110.619 54.9306C111.686 55.1201 112.659 55.6661 113.372 56.4964C114.06 57.3514 114.392 58.4187 114.344 59.486C114.416 60.8851 113.823 62.214 112.731 63.0917C111.664 63.9467 110.12 64.3732 108.105 64.3732H101.747V46.8642L101.745 46.8623ZM104.141 48.8092V54.1002H107.7C108.862 54.1002 109.739 53.886 110.31 53.4367C110.903 52.9628 111.235 52.2026 111.165 51.4443C111.212 50.686 110.903 49.9505 110.31 49.4519C109.741 49.0253 108.864 48.7884 107.7 48.7884H104.141V48.813V48.8092ZM104.141 56.0206V62.4509H107.984C109.265 62.4509 110.213 62.1893 110.854 61.668C111.47 61.1467 111.779 60.3163 111.779 59.2471C111.779 58.1779 111.47 57.3495 110.854 56.8263C110.238 56.305 109.288 56.0433 107.984 56.0433H104.141V56.0187V56.0206Z" fill="white"/>
<path d="M125.139 46.8398H127.772L131.948 53.1507L136.147 46.8398H138.71L133.205 55.073L139.374 64.3962H136.741L131.878 57.0408L126.989 64.3962H124.428L130.619 55.1432L125.139 46.8398Z" fill="white"/>
<path d="M120.56 46.8398H118.164V64.3962H120.56V46.8398Z" fill="white"/>
<path d="M87.8254 168.085L88.9192 171.454H92.4624L89.596 173.536L90.6898 176.906L87.8254 174.823L84.959 176.906L86.0529 173.536L83.1865 171.454H86.7297L87.8254 168.085Z" fill="white"/>
<path d="M101.747 168.085L102.843 171.454H106.386L103.52 173.536L104.614 176.906L101.747 174.823L98.8829 176.906L99.9767 173.536L97.1104 171.454H100.653L101.747 168.085Z" fill="white"/>
<path d="M55.964 95.1793C58.2806 95.1793 59.6569 94.1291 60.6977 93.1016L60.7261 93.075L60.0797 92.4475L60.0531 92.4741C58.7318 93.7783 57.5565 94.3092 55.9982 94.3092C53.2095 94.3092 51.0238 91.9831 51.0238 89.0125C51.0238 86.0419 53.1546 83.7158 55.9811 83.7158C57.8996 83.7158 59.0655 84.5916 59.9508 85.4504L59.9773 85.4769L60.6067 84.8286L60.5783 84.802C59.2607 83.5945 58.0342 82.8438 55.9982 82.8438C52.6541 82.8438 50.0342 85.5528 50.0342 89.0125C50.0342 92.4722 52.5839 95.1812 55.964 95.1812V95.1793Z" fill="white"/>
<path d="M71.649 94.0871H64.0111V89.4047H70.8016V88.5175H64.0111V83.9355H71.5637V83.0464H63.0557V94.9762H71.649V94.0871Z" fill="white"/>
<path d="M82.9445 94.9611L82.9559 94.9763H84.1692L80.2507 89.9033C82.4061 89.5886 83.6895 88.3166 83.6895 86.4891C83.6895 85.6171 83.3673 84.8133 82.7815 84.2275C82.0213 83.4673 80.827 83.0483 79.4185 83.0483H74.4023V94.9782H75.3578V90.0682H79.1796L82.9445 94.9649V94.9611ZM75.3578 83.9355H79.3673C81.4753 83.9355 82.7322 84.8891 82.7322 86.4891C82.7322 88.0891 81.3919 89.1943 79.3161 89.1943H75.3578V83.9355Z" fill="white"/>
<path d="M89.7597 94.9762H90.7171V83.9355H94.8479V83.0464H85.6289V83.9355H89.7597V94.9762Z" fill="white"/>
<path d="M98.5209 83.0464H97.5654V94.9762H98.5209V83.0464Z" fill="white"/>
<path d="M103.042 89.6075H109.748V88.7203H103.042V83.9355H110.51V83.0464H102.087V94.9762H103.042V89.6075Z" fill="white"/>
<path d="M114.269 83.0464H113.313V94.9762H114.269V83.0464Z" fill="white"/>
<path d="M118.79 89.4047H125.581V88.5175H118.79V83.9355H126.343V83.0464H117.835V94.9762H126.428V94.0871H118.79V89.4047Z" fill="white"/>
<path d="M133.164 83.0464H129.181V94.9762H133.164C136.836 94.9762 139.501 92.4682 139.501 89.0123C139.501 85.5563 136.836 83.0483 133.164 83.0483V83.0464ZM130.136 83.9355H133.164C136.261 83.9355 138.511 86.0701 138.511 89.0123C138.511 91.9544 136.312 94.089 133.164 94.089H130.136V83.9374V83.9355Z" fill="white"/>
<path d="M31.5127 103.367H26.8018V115.297H28.961V111.486H31.2776C32.6084 111.486 33.8065 111.118 34.6501 110.451C35.5714 109.723 36.0567 108.669 36.0567 107.401C36.0567 104.95 34.2747 103.367 31.5146 103.367H31.5127ZM31.3439 109.532H28.961V105.34H31.3439C32.9439 105.34 33.8634 106.098 33.8634 107.42C33.8634 108.741 32.8738 109.532 31.3439 109.532Z" fill="white"/>
<path d="M47.8744 107.181C47.8744 104.828 46.172 103.367 43.4346 103.367H38.1133V115.297H40.2725V111.166H42.7901L45.7247 115.281L45.736 115.297H48.2839L45.0725 110.792C46.8811 110.258 47.8763 108.976 47.8763 107.181H47.8744ZM40.2706 105.34H43.264C44.7995 105.34 45.6811 106.042 45.6811 107.266C45.6811 108.491 44.7616 109.243 43.2811 109.243H40.2706V105.34Z" fill="white"/>
<path d="M56.0832 103.164C54.341 103.164 52.7429 103.812 51.5846 104.99C50.4548 106.137 49.8311 107.68 49.8311 109.333C49.8311 112.849 52.504 115.502 56.0491 115.502C57.7912 115.502 59.3894 114.853 60.5476 113.676C61.6775 112.529 62.3012 110.986 62.3012 109.333C62.3012 105.816 59.6282 103.164 56.0832 103.164ZM56.0832 113.511C54.9723 113.511 53.9524 113.073 53.2131 112.279C52.4889 111.502 52.0908 110.455 52.0908 109.333C52.0908 106.95 53.7931 105.155 56.0491 105.155C57.16 105.155 58.1799 105.592 58.9192 106.387C59.6434 107.164 60.0415 108.211 60.0415 109.333C60.0415 111.716 58.3391 113.511 56.0832 113.511Z" fill="white"/>
<path d="M64.749 115.297H66.9083V110.47H72.8855V108.498H66.9083V105.34H73.6476V103.367H64.749V115.297Z" fill="white"/>
<path d="M78.0148 110.25H83.9598V108.313H78.0148V105.306H84.72V103.367H75.8574V115.297H84.8053V113.357H78.0148V110.25Z" fill="white"/>
<path d="M91.8219 108.347C89.4257 107.775 89.039 107.34 89.039 106.521C89.039 105.703 89.7992 105.121 90.9309 105.121C91.9868 105.121 93.0333 105.517 94.1252 106.332L94.1556 106.355L95.3157 104.719L95.2873 104.696C94.0304 103.687 92.6162 103.198 90.9631 103.198C88.5574 103.198 86.8778 104.628 86.8778 106.673C86.8778 108.908 88.275 109.661 90.8532 110.266C93.1034 110.802 93.4996 111.27 93.4996 112.057C93.4996 112.975 92.7091 113.543 91.4371 113.543C90.0892 113.543 88.9442 113.071 87.7195 112.012L87.6911 111.987L86.3906 113.534L86.4172 113.558C87.8143 114.806 89.5319 115.466 91.3878 115.466C93.983 115.466 95.6589 114.061 95.6589 111.888C95.6589 109.716 94.1233 108.906 91.82 108.347H91.8219Z" fill="white"/>
<path d="M102.489 108.347C100.093 107.775 99.706 107.34 99.706 106.521C99.706 105.703 100.466 105.121 101.598 105.121C102.654 105.121 103.7 105.517 104.792 106.332L104.823 106.355L105.983 104.719L105.954 104.696C104.697 103.687 103.283 103.198 101.63 103.198C99.2244 103.198 97.5448 104.628 97.5448 106.673C97.5448 108.908 98.942 109.661 101.52 110.266C103.77 110.802 104.167 111.27 104.167 112.057C104.167 112.975 103.376 113.543 102.104 113.543C100.756 113.543 99.6112 113.071 98.3865 112.012L98.3581 111.987L97.0576 113.534L97.0842 113.558C98.4813 114.806 100.199 115.466 102.055 115.466C104.65 115.466 106.326 114.061 106.326 111.888C106.326 109.716 104.79 108.906 102.487 108.347H102.489Z" fill="white"/>
<path d="M110.984 103.367H108.826V115.297H110.984V103.367Z" fill="white"/>
<path d="M119.803 103.164C118.061 103.164 116.463 103.812 115.304 104.99C114.174 106.137 113.551 107.68 113.551 109.333C113.551 112.849 116.224 115.502 119.769 115.502C121.511 115.502 123.109 114.853 124.267 113.676C125.397 112.529 126.021 110.986 126.021 109.333C126.021 105.816 123.348 103.164 119.803 103.164ZM119.803 113.511C118.692 113.511 117.672 113.073 116.933 112.279C116.209 111.502 115.811 110.455 115.811 109.333C115.811 106.95 117.513 105.155 119.769 105.155C120.88 105.155 121.9 105.592 122.639 106.387C123.363 107.164 123.761 108.211 123.761 109.333C123.761 111.716 122.059 113.511 119.803 113.511Z" fill="white"/>
<path d="M136.748 111.49L130.466 103.382L130.455 103.367H128.468V115.297H130.593V106.936L137.061 115.281L137.073 115.297H138.873V103.367H136.748V111.49Z" fill="white"/>
<path d="M148.038 103.284H146.059L140.81 115.297H143.026L144.245 112.434H149.799L150.992 115.272L151.001 115.295H153.285L148.047 103.304L148.038 103.282V103.284ZM149.007 110.514H145.041L147.016 105.905L149.007 110.514Z" fill="white"/>
<path d="M157.382 103.367H155.223V115.297H163.613V113.325H157.382V103.367Z" fill="white"/>
</g>
<defs>
<linearGradient id="paint0_linear_250_76" x1="149.196" y1="28.5744" x2="38.8056" y2="173.488" gradientUnits="userSpaceOnUse">
<stop offset="0.14" stop-color="#0A466A"/>
<stop offset="1" stop-color="#021A2C"/>
</linearGradient>
<linearGradient id="paint1_linear_250_76" x1="2.6218" y1="133.369" x2="186.796" y2="132.929" gradientUnits="userSpaceOnUse">
<stop stop-color="#040805"/>
<stop offset="0.5" stop-color="#0000FF"/>
<stop offset="1"/>
</linearGradient>
<linearGradient id="paint2_linear_250_76" x1="0" y1="102.362" x2="8.25403" y2="102.362" gradientUnits="userSpaceOnUse">
<stop stop-color="#244969"/>
<stop offset="1" stop-color="#021A2C"/>
</linearGradient>
<linearGradient id="paint3_linear_250_76" x1="181.319" y1="102.362" x2="189.573" y2="102.362" gradientUnits="userSpaceOnUse">
<stop stop-color="#021A2C"/>
<stop offset="1" stop-color="#244969"/>
</linearGradient>
<clipPath id="clip0_250_76">
<rect width="189.573" height="200" fill="white"/>
</clipPath>
</defs>
</svg>
