<svg width="190" height="200" viewBox="0 0 190 200" fill="none" xmlns="http://www.w3.org/2000/svg">
<g clip-path="url(#clip0_250_38)">
<path d="M181.319 150V50L94.7866 0L8.25391 50V150L94.7866 200L181.319 150Z" fill="url(#paint0_linear_250_38)"/>
<path d="M189.573 105.109V132.883L94.7867 187.651L0 132.883V105.109L94.7867 159.875L189.573 105.109Z" fill="url(#paint1_linear_250_38)"/>
<path style="mix-blend-mode:screen" d="M189.573 105.109V106.648L94.7867 161.416L0 106.648V105.109L94.7867 159.875L189.573 105.109Z" fill="url(#paint2_linear_250_38)"/>
<path d="M0 105.109L8.25403 94.8457V109.877L0 105.109Z" fill="url(#paint3_linear_250_38)"/>
<path d="M189.573 105.109L181.319 94.8457V109.877L189.573 105.109Z" fill="url(#paint4_linear_250_38)"/>
<path d="M60.6996 93.1035L60.7281 93.077L60.0816 92.4495L60.0551 92.476C58.7338 93.7803 57.5584 94.3111 56.0001 94.3111C53.2115 94.3111 51.0257 91.985 51.0257 89.0144C51.0257 86.0438 53.1565 83.7177 55.9831 83.7177C57.9015 83.7177 59.0674 84.5936 59.9527 85.4523L59.9793 85.4789L60.6086 84.8305L60.5802 84.804C59.2627 83.5964 58.0361 82.8457 56.0001 82.8457C52.656 82.8457 50.0361 85.5547 50.0361 89.0144C50.0361 92.4741 52.5859 95.1831 55.966 95.1831C58.2826 95.1831 59.6589 94.1329 60.6996 93.1054V93.1035Z" fill="white"/>
<path d="M71.649 94.0871H64.0111V89.4047H70.8016V88.5175H64.0111V83.9355H71.5637V83.0464H63.0557V94.9762H71.649V94.0871Z" fill="white"/>
<path d="M82.9445 94.9611L82.9559 94.9763H84.1692L80.2507 89.9033C82.4061 89.5886 83.6895 88.3166 83.6895 86.4891C83.6895 85.6171 83.3673 84.8133 82.7815 84.2275C82.0213 83.4673 80.827 83.0483 79.4185 83.0483H74.4023V94.9782H75.3578V90.0682H79.1796L82.9445 94.9649V94.9611ZM75.3578 83.9355H79.3673C81.4753 83.9355 82.7341 84.8891 82.7341 86.4891C82.7341 88.0891 81.3938 89.1943 79.318 89.1943H75.3597V83.9355H75.3578Z" fill="white"/>
<path d="M85.6289 83.9355H89.7597V94.9762H90.7171V83.9355H94.8479V83.0464H85.6289V83.9355Z" fill="white"/>
<path d="M98.5209 83.0464H97.5654V94.9762H98.5209V83.0464Z" fill="white"/>
<path d="M102.087 94.9762H103.042V89.6075H109.748V88.7203H103.042V83.9355H110.51V83.0464H102.087V94.9762Z" fill="white"/>
<path d="M114.269 83.0464H113.313V94.9762H114.269V83.0464Z" fill="white"/>
<path d="M118.79 89.4047H125.581V88.5175H118.79V83.9355H126.343V83.0464H117.835V94.9762H126.428V94.0871H118.79V89.4047Z" fill="white"/>
<path d="M133.164 83.0464H129.181V94.9762H133.164C136.836 94.9762 139.501 92.4682 139.501 89.0123C139.501 85.5563 136.836 83.0483 133.164 83.0483V83.0464ZM130.136 83.9355H133.164C136.261 83.9355 138.511 86.0701 138.511 89.0123C138.511 91.9544 136.312 94.089 133.164 94.089H130.136V83.9374V83.9355Z" fill="white"/>
<path d="M46.7526 108.347C44.3564 107.775 43.9716 107.34 43.9716 106.521C43.9716 105.703 44.7318 105.121 45.8635 105.121C46.9194 105.121 47.9659 105.517 49.0578 106.332L49.0882 106.355L50.2484 104.719L50.2199 104.696C48.9631 103.687 47.5488 103.198 45.8958 103.198C43.4901 103.198 41.8104 104.628 41.8104 106.673C41.8104 108.908 43.2076 109.661 45.7858 110.266C48.036 110.802 48.4322 111.27 48.4322 112.057C48.4322 112.975 47.6417 113.543 46.3697 113.543C45.0218 113.543 43.8768 113.071 42.6522 112.012L42.6237 111.987L41.3232 113.534L41.3498 113.558C42.7469 114.806 44.4645 115.466 46.3204 115.466C48.9157 115.466 50.5915 114.061 50.5915 111.888C50.5915 109.716 49.0559 108.906 46.7526 108.347Z" fill="white"/>
<path d="M58.3603 103.367H53.6494V115.297H55.8087V111.486H58.1252C59.456 111.486 60.6542 111.118 61.4978 110.451C62.4191 109.723 62.9044 108.669 62.9044 107.401C62.9044 104.95 61.1224 103.367 58.3622 103.367H58.3603ZM58.1916 109.532H55.8087V105.34H58.1916C59.7935 105.34 60.711 106.098 60.711 107.42C60.711 108.741 59.7214 109.532 58.1916 109.532Z" fill="white"/>
<path d="M67.7969 110.25H73.7401V108.313H67.7969V105.306H74.5022V103.367H65.6377V115.297H74.5875V113.357H67.7969V110.25Z" fill="white"/>
<path d="M86.6485 111.979C85.6362 112.925 84.7168 113.511 83.2703 113.511C82.1974 113.511 81.2097 113.075 80.4912 112.284C79.7841 111.507 79.3955 110.459 79.3955 109.331C79.3955 106.948 81.0618 105.153 83.2703 105.153C84.459 105.153 85.4732 105.604 86.5632 106.616L86.5917 106.643L87.9793 105.045L87.9528 105.02C86.9917 104.102 85.6855 103.164 83.2874 103.164C79.7803 103.164 77.1357 105.816 77.1357 109.333C77.1357 111.014 77.75 112.569 78.8647 113.714C79.9888 114.866 81.5282 115.502 83.2021 115.502C85.1964 115.502 86.5973 114.889 88.0381 113.39L88.0628 113.363L86.6732 111.956L86.6466 111.981L86.6485 111.979Z" fill="white"/>
<path d="M93.1124 103.367H90.9531V115.297H93.1124V103.367Z" fill="white"/>
<path d="M103.073 103.283H101.094L95.8694 115.243L95.8467 115.296H98.0628L99.2818 112.434H104.836L106.038 115.296H108.323L103.085 103.306L103.075 103.283H103.073ZM104.04 110.514H100.074L102.05 105.905L104.04 110.514Z" fill="white"/>
<path d="M113.094 103.367H110.935V115.297H119.325V113.325H113.094V103.367Z" fill="white"/>
<path d="M124.371 103.367H122.212V115.297H124.371V103.367Z" fill="white"/>
<path d="M132.756 108.347C130.36 107.775 129.974 107.34 129.974 106.521C129.974 105.703 130.734 105.121 131.865 105.121C132.921 105.121 133.968 105.517 135.06 106.332L135.09 106.355L136.25 104.719L136.222 104.696C134.965 103.687 133.551 103.198 131.898 103.198C129.492 103.198 127.812 104.628 127.812 106.673C127.812 108.908 129.21 109.661 131.788 110.266C134.038 110.802 134.434 111.27 134.434 112.057C134.434 112.975 133.644 113.543 132.372 113.543C131.024 113.543 129.877 113.071 128.654 112.012L128.626 111.987L127.325 113.534L127.352 113.558C128.749 114.806 130.466 115.466 132.322 115.466C134.918 115.466 136.593 114.061 136.593 111.888C136.593 109.716 135.058 108.906 132.755 108.347H132.756Z" fill="white"/>
<path d="M138.552 105.372H142.311V115.297H144.487V105.372H148.247V103.367H138.552V105.372Z" fill="white"/>
<path d="M143.218 42.9951H46.8223V68.2387H143.218V42.9951Z" fill="#D40000"/>
<path d="M50.9511 46.8398H64.9018V48.6673L53.679 62.4038H65.1615V64.3962H50.6895V62.5934L61.9122 48.8569H50.9511V46.8398Z" fill="white"/>
<path d="M73.2526 46.8623H75.9805L82.7426 64.4187H80.2516L78.6383 59.9106H70.6421L69.0042 64.4187H66.4658L73.2507 46.8623H73.2526ZM74.6042 49.2111L71.353 57.9429H77.8781L74.6042 49.2111Z" fill="white"/>
<path d="M85.3037 46.8623H91.4478C93.2753 46.8623 94.699 47.2415 95.6715 47.977C96.6686 48.7353 97.2127 49.9467 97.1426 51.1808C97.19 52.1059 96.9284 53.0083 96.3843 53.7438C95.8156 54.4073 95.008 54.8358 94.1549 54.9306C95.2222 55.1201 96.1947 55.6661 96.9075 56.4964C97.5957 57.3514 97.9274 58.4187 97.88 59.486C97.9521 60.8851 97.3587 62.214 96.2667 63.0917C95.1994 63.9467 93.6563 64.3732 91.6639 64.3732H85.3056V46.8642L85.3037 46.8623ZM87.6999 48.8092V54.1002H91.2582C92.4203 54.1002 93.298 53.886 93.8686 53.4367C94.462 52.9628 94.7938 52.2026 94.7236 51.4443C94.771 50.686 94.462 49.9505 93.8686 49.4519C93.2999 49.0253 92.4222 48.7884 91.2582 48.7884H87.6999V48.813V48.8092ZM87.6999 56.0206V62.4509H91.5426C92.8241 62.4509 93.7966 62.1893 94.4127 61.668C95.0288 61.1467 95.3378 60.3163 95.3378 59.2471C95.3378 58.1779 95.0288 57.3495 94.4127 56.8263C93.7966 56.305 92.8468 56.0433 91.5426 56.0433H87.6999V56.0187V56.0206Z" fill="white"/>
<path d="M101.745 46.8623H107.889C109.717 46.8623 111.116 47.2415 112.113 47.977C113.11 48.7353 113.654 49.9467 113.607 51.1808C113.654 52.1059 113.393 53.0083 112.848 53.7438C112.28 54.4073 111.497 54.8358 110.619 54.9306C111.686 55.1201 112.659 55.6661 113.372 56.4964C114.06 57.3514 114.392 58.4187 114.344 59.486C114.416 60.8851 113.823 62.214 112.731 63.0917C111.664 63.9467 110.12 64.3732 108.105 64.3732H101.747V46.8642L101.745 46.8623ZM104.141 48.8092V54.1002H107.7C108.862 54.1002 109.739 53.886 110.31 53.4367C110.903 52.9628 111.235 52.2026 111.165 51.4443C111.212 50.686 110.903 49.9505 110.31 49.4519C109.741 49.0253 108.864 48.7884 107.7 48.7884H104.141V48.813V48.8092ZM104.141 56.0206V62.4509H107.984C109.265 62.4509 110.213 62.1893 110.854 61.668C111.47 61.1467 111.779 60.3163 111.779 59.2471C111.779 58.1779 111.47 57.3495 110.854 56.8263C110.238 56.305 109.288 56.0433 107.984 56.0433H104.141V56.0187V56.0206Z" fill="white"/>
<path d="M125.139 46.8398H127.772L131.948 53.1507L136.147 46.8398H138.71L133.205 55.073L139.374 64.3962H136.741L131.878 57.0408L126.989 64.3962H124.428L130.619 55.1432L125.139 46.8398Z" fill="white"/>
<path d="M120.56 46.8398H118.164V64.3962H120.56V46.8398Z" fill="white"/>
<path d="M94.7864 168.085L95.8802 171.454H99.4234L96.557 173.536L97.6527 176.906L94.7864 174.823L91.92 176.906L93.0158 173.536L90.1494 171.454H93.6925L94.7864 168.085Z" fill="white"/>
</g>
<defs>
<linearGradient id="paint0_linear_250_38" x1="149.196" y1="28.5744" x2="38.8056" y2="173.488" gradientUnits="userSpaceOnUse">
<stop offset="0.14" stop-color="#0A466A"/>
<stop offset="1" stop-color="#021A2C"/>
</linearGradient>
<linearGradient id="paint1_linear_250_38" x1="0" y1="146.379" x2="189.573" y2="146.379" gradientUnits="userSpaceOnUse">
<stop stop-color="#C50000"/>
<stop offset="1" stop-color="#FF0013"/>
</linearGradient>
<linearGradient id="paint2_linear_250_38" x1="2.6218" y1="133.369" x2="186.796" y2="132.929" gradientUnits="userSpaceOnUse">
<stop stop-color="#040805"/>
<stop offset="0.5" stop-color="#F15A24"/>
<stop offset="1"/>
</linearGradient>
<linearGradient id="paint3_linear_250_38" x1="0" y1="102.362" x2="8.25403" y2="102.362" gradientUnits="userSpaceOnUse">
<stop stop-color="#244969"/>
<stop offset="1" stop-color="#021A2C"/>
</linearGradient>
<linearGradient id="paint4_linear_250_38" x1="181.319" y1="102.362" x2="189.573" y2="102.362" gradientUnits="userSpaceOnUse">
<stop stop-color="#021A2C"/>
<stop offset="1" stop-color="#244969"/>
</linearGradient>
<clipPath id="clip0_250_38">
<rect width="189.573" height="200" fill="white"/>
</clipPath>
</defs>
</svg>
