<svg width="190" height="200" viewBox="0 0 190 200" fill="none" xmlns="http://www.w3.org/2000/svg">
<g clip-path="url(#clip0_250_118)">
<path d="M181.319 150V50L94.7866 0L8.25391 50V150L94.7866 200L181.319 150Z" fill="url(#paint0_linear_250_118)"/>
<path d="M189.573 105.109V132.883L94.7867 187.651L0 132.883V105.109L94.7867 159.875L189.573 105.109Z" fill="url(#paint1_linear_250_118)"/>
<g style="mix-blend-mode:screen">
<path d="M189.573 105.109V106.648L94.7867 161.416L0 106.648V105.109L94.7867 159.875L189.573 105.109Z" fill="#FFA022"/>
</g>
<path d="M0 105.109L8.25403 94.8457V109.877L0 105.109Z" fill="url(#paint2_linear_250_118)"/>
<path d="M189.574 105.109L181.32 94.8457V109.877L189.574 105.109Z" fill="url(#paint3_linear_250_118)"/>
<path d="M143.218 42.9951H46.8223V68.2387H143.218V42.9951Z" fill="#D40000"/>
<path d="M50.9511 46.8398H64.9018V48.6673L53.679 62.4038H65.1615V64.3962H50.6895V62.5934L61.9122 48.8569H50.9511V46.8398Z" fill="white"/>
<path d="M73.2535 46.8623H75.9815L82.7436 64.4187H80.2526L78.6393 59.9106H70.6431L69.0052 64.4187H66.4668L73.2516 46.8623H73.2535ZM74.6052 49.2111L71.354 57.9429H77.8791L74.6052 49.2111Z" fill="white"/>
<path d="M85.3047 46.8623H91.4488C93.2763 46.8623 94.6999 47.2415 95.6725 47.977C96.6696 48.7353 97.2137 49.9467 97.1435 51.1808C97.1909 52.1059 96.9293 53.0083 96.3853 53.7438C95.8165 54.4073 95.009 54.8358 94.1559 54.9306C95.2232 55.1201 96.1957 55.6661 96.9085 56.4964C97.5966 57.3514 97.9284 58.4187 97.881 59.486C97.953 60.8851 97.3597 62.214 96.2677 63.0917C95.2004 63.9467 93.6573 64.3732 91.6649 64.3732H85.3066V46.8642L85.3047 46.8623ZM87.7009 48.8092V54.1002H91.2592C92.4213 54.1002 93.299 53.886 93.8696 53.4367C94.463 52.9628 94.7947 52.2026 94.7246 51.4443C94.772 50.686 94.463 49.9505 93.8696 49.4519C93.3009 49.0253 92.4232 48.7884 91.2592 48.7884H87.7009V48.813V48.8092ZM87.7009 56.0206V62.4509H91.5436C92.8251 62.4509 93.7976 62.1893 94.4137 61.668C95.0298 61.1467 95.3388 60.3163 95.3388 59.2471C95.3388 58.1779 95.0298 57.3495 94.4137 56.8263C93.7976 56.305 92.8478 56.0433 91.5436 56.0433H87.7009V56.0187V56.0206Z" fill="white"/>
<path d="M101.746 46.8623H107.89C109.718 46.8623 111.117 47.2415 112.114 47.977C113.111 48.7353 113.655 49.9467 113.608 51.1808C113.655 52.1059 113.393 53.0083 112.849 53.7438C112.281 54.4073 111.498 54.8358 110.62 54.9306C111.687 55.1201 112.66 55.6661 113.373 56.4964C114.061 57.3514 114.393 58.4187 114.345 59.486C114.417 60.8851 113.824 62.214 112.732 63.0917C111.665 63.9467 110.121 64.3732 108.106 64.3732H101.748V46.8642L101.746 46.8623ZM104.142 48.8092V54.1002H107.701C108.863 54.1002 109.74 53.886 110.311 53.4367C110.904 52.9628 111.236 52.2026 111.166 51.4443C111.213 50.686 110.904 49.9505 110.311 49.4519C109.742 49.0253 108.865 48.7884 107.701 48.7884H104.142V48.813V48.8092ZM104.142 56.0206V62.4509H107.985C109.266 62.4509 110.214 62.1893 110.855 61.668C111.471 61.1467 111.78 60.3163 111.78 59.2471C111.78 58.1779 111.471 57.3495 110.855 56.8263C110.239 56.305 109.289 56.0433 107.985 56.0433H104.142V56.0187V56.0206Z" fill="white"/>
<path d="M125.139 46.8398H127.772L131.948 53.1507L136.147 46.8398H138.71L133.205 55.073L139.374 64.3962H136.741L131.878 57.0408L126.989 64.3962H124.428L130.619 55.1432L125.139 46.8398Z" fill="white"/>
<path d="M120.56 46.8398H118.164V64.3962H120.56V46.8398Z" fill="white"/>
<path d="M79.0022 160.015L80.096 163.386H83.6392L80.7728 165.467L81.8685 168.836L79.0022 166.754L76.1358 168.836L77.2297 165.467L74.3652 163.386H77.9065L79.0022 160.015Z" fill="white"/>
<path d="M110.571 160.015L111.666 163.386H115.208L112.343 165.467L113.437 168.836L110.571 166.754L107.704 168.836L108.8 165.467L105.934 163.386H109.477L110.571 160.015Z" fill="white"/>
<path d="M94.7678 168.085L95.8617 171.454H99.4048L96.5384 173.536L97.6323 176.906L94.7678 174.823L91.9015 176.906L92.9953 173.536L90.1309 171.454H93.6721L94.7678 168.085Z" fill="white"/>
<path d="M60.7251 93.075L60.0787 92.4475L60.0522 92.4741C58.7308 93.7783 57.5555 94.3092 55.9972 94.3092C53.2086 94.3092 51.0228 91.9831 51.0228 89.0125C51.0228 86.0419 53.1536 83.7158 55.9801 83.7158C57.8986 83.7158 59.0645 84.5916 59.9498 85.4504L59.9763 85.4769L60.6057 84.8286L60.5773 84.802C59.2597 83.5945 58.0332 82.8438 55.9972 82.8438C52.6531 82.8438 50.0332 85.5528 50.0332 89.0125C50.0332 92.4722 52.583 95.1812 55.965 95.1812C58.2815 95.1812 59.6579 94.131 60.6986 93.1035L60.7251 93.0769V93.075Z" fill="white"/>
<path d="M71.65 94.0871H64.0121V89.4047H70.8026V88.5175H64.0121V83.9355H71.5647V83.0464H63.0566V94.9762H71.65V94.0871Z" fill="white"/>
<path d="M83.6895 86.4891C83.6895 85.6171 83.3673 84.8133 82.7815 84.2275C82.0213 83.4673 80.827 83.0483 79.4185 83.0483H74.4023V94.9782H75.3578V90.0682H79.1796L82.9445 94.9649L82.9559 94.9801H84.1692L80.2507 89.9071C82.4061 89.5924 83.6895 88.3204 83.6895 86.4929V86.4891ZM75.3578 83.9355H79.3673C81.4753 83.9355 82.7341 84.8891 82.7341 86.4891C82.7341 88.0891 81.3938 89.1943 79.318 89.1943H75.3597V83.9355H75.3578Z" fill="white"/>
<path d="M85.6289 83.9355H89.7597V94.9762H90.7171V83.9355H94.8479V83.0464H85.6289V83.9355Z" fill="white"/>
<path d="M98.5219 83.0464H97.5664V94.9762H98.5219V83.0464Z" fill="white"/>
<path d="M103.043 89.6075H109.749V88.7203H103.043V83.9355H110.511V83.0464H102.088V94.9762H103.043V89.6075Z" fill="white"/>
<path d="M114.27 83.0464H113.314V94.9762H114.27V83.0464Z" fill="white"/>
<path d="M126.429 94.0871H118.791V89.4047H125.582V88.5175H118.791V83.9355H126.344V83.0464H117.836V94.9762H126.429V94.0871Z" fill="white"/>
<path d="M133.165 83.0464H129.182V94.9762H133.165C136.837 94.9762 139.502 92.4682 139.502 89.0123C139.502 85.5563 136.837 83.0483 133.165 83.0483V83.0464ZM130.137 83.9355H133.165C136.262 83.9355 138.512 86.0701 138.512 89.0123C138.512 91.9544 136.313 94.089 133.165 94.089H130.137V83.9374V83.9355Z" fill="white"/>
<path d="M61.9366 110.25H67.8797V108.313H61.9366V105.306H68.6418V103.367H59.7773V115.297H68.7271V113.357H61.9366V110.25Z" fill="white"/>
<path d="M81.9383 103.367H79.4568L76.5146 107.589L73.5876 103.367H71.0398L75.2142 109.23L70.9127 115.236L70.8691 115.297H73.3507L76.4635 110.838L79.5478 115.279L79.5592 115.297H82.1071L77.7791 109.196L81.9383 103.367Z" fill="white"/>
<path d="M89.5351 103.367H84.8242V115.297H86.9816V111.486H89.2981C90.629 111.486 91.8271 111.118 92.6707 110.451C93.592 109.723 94.0773 108.669 94.0773 107.401C94.0773 104.95 92.2934 103.367 89.5351 103.367ZM89.3645 109.532H86.9816V105.34H89.3645C90.9664 105.34 91.8839 106.098 91.8839 107.42C91.8839 108.741 90.8944 109.532 89.3645 109.532Z" fill="white"/>
<path d="M98.9698 110.25H104.913V108.313H98.9698V105.306H105.675V103.367H96.8105V115.297H105.76V113.357H98.9698V110.25Z" fill="white"/>
<path d="M118.597 107.181C118.597 104.828 116.895 103.367 114.157 103.367H108.836V115.297H110.995V111.166H113.513L116.447 115.281L116.459 115.297H119.007L115.795 110.792C117.604 110.258 118.599 108.976 118.599 107.181H118.597ZM110.993 105.34H113.987C115.522 105.34 116.404 106.042 116.404 107.266C116.404 108.491 115.484 109.243 114.004 109.243H110.993V105.34Z" fill="white"/>
<path d="M120.908 105.372H124.667V115.297H126.844V105.372H130.603V103.367H120.908V105.372Z" fill="white"/>
</g>
<defs>
<linearGradient id="paint0_linear_250_118" x1="149.196" y1="28.5744" x2="38.8056" y2="173.488" gradientUnits="userSpaceOnUse">
<stop offset="0.14" stop-color="#0A466A"/>
<stop offset="1" stop-color="#021A2C"/>
</linearGradient>
<linearGradient id="paint1_linear_250_118" x1="0" y1="146.379" x2="189.573" y2="146.379" gradientUnits="userSpaceOnUse">
<stop offset="0.02" stop-color="#EBCD67"/>
<stop offset="0.07" stop-color="#DDBA51"/>
<stop offset="0.16" stop-color="#C99D31"/>
<stop offset="0.26" stop-color="#BB891A"/>
<stop offset="0.34" stop-color="#B27D0C"/>
<stop offset="0.42" stop-color="#B07908"/>
<stop offset="0.53" stop-color="#BA8819"/>
<stop offset="0.74" stop-color="#D6B047"/>
<stop offset="0.78" stop-color="#DBB74F"/>
<stop offset="1" stop-color="#C0942A"/>
</linearGradient>
<linearGradient id="paint2_linear_250_118" x1="0" y1="102.362" x2="8.25403" y2="102.362" gradientUnits="userSpaceOnUse">
<stop stop-color="#244969"/>
<stop offset="1" stop-color="#021A2C"/>
</linearGradient>
<linearGradient id="paint3_linear_250_118" x1="181.32" y1="102.362" x2="189.574" y2="102.362" gradientUnits="userSpaceOnUse">
<stop stop-color="#021A2C"/>
<stop offset="1" stop-color="#244969"/>
</linearGradient>
<clipPath id="clip0_250_118">
<rect width="189.573" height="200" fill="white"/>
</clipPath>
</defs>
</svg>
